PathFileType	4	(X/Y/Z)	c:\Git\powerlifing_model_clean\simulations\HC835B\Session1\HC835B_OGW_0003\marker_experimental.trc
DataRate	CameraRate	NumFrames	NumMarkers	Units	OrigDataRate	OrigDataStartFrame	OrigNumFrames
240.000000	240.000000	4	38	mm	240.000000	160	428
Frame#	Time	RPSI			LPSI			RASI			LASI			RTH1			RTH2			RTH3			RTH4			RSK1			RSK2			RSK3			RSK4			RCAL1			RCAL2			RCAL3			RST			RPT			RTN			RFMB			RSMB			RVMB			RFMH			RSMH			RVMH			RPM			LTH1			LTH2			LTH3			LTH4			LSK1			LSK2			LSK3			LSK4			LCAL1			LCAL2			LCAL3			LFMH			LVMH			
		X1	Y1	Z1	X2	Y2	Z2	X3	Y3	Z3	X4	Y4	Z4	X5	Y5	Z5	X6	Y6	Z6	X7	Y7	Z7	X8	Y8	Z8	X9	Y9	Z9	X10	Y10	Z10	X11	Y11	Z11	X12	Y12	Z12	X13	Y13	Z13	X14	Y14	Z14	X15	Y15	Z15	X16	Y16	Z16	X17	Y17	Z17	X18	Y18	Z18	X19	Y19	Z19	X20	Y20	Z20	X21	Y21	Z21	X22	Y22	Z22	X23	Y23	Z23	X24	Y24	Z24	X25	Y25	Z25	X26	Y26	Z26	X27	Y27	Z27	X28	Y28	Z28	X29	Y29	Z29	X30	Y30	Z30	X31	Y31	Z31	X32	Y32	Z32	X33	Y33	Z33	X34	Y34	Z34	X35	Y35	Z35	X36	Y36	Z36	X37	Y37	Z37	X38	Y38	Z38	

161	0.6666666666666666	467.5353393554689	1086.366333007813	-1441.949829101563	575.8393554687501	1082.3251953125	-1437.41015625	388.6504211425782	1039.916870117188	-1240.03076171875	630.6179199218751	1041.957397460938	-1221.585205078125	320.4490966796876	776.2232055664065	-1363.849365234375	325.0100708007813	755.6195068359376	-1306.827880859375	324.1029968261719	692.6248168945314	-1352.549682617188	339.8391418457032	671.8037719726564	-1300.164184570313	383.1810607910157	366.3143615722657	-1642.39892578125	369.1989746093751	314.7121276855469	-1611.050537109375	386.6913146972657	314.2144470214844	-1669.851806640625	384.606658935547	263.9347534179688	-1636.671264648438	453.0509033203126	250.3607940673829	-1795.513916015625	492.8417358398439	226.7484741210938	-1812.333374023438	431.1538085937501	222.1404876708985	-1828.248291015625	498.346405029297	183.2298583984375	-1755.328491210938	402.2806091308595	178.107894897461	-1791.185791015625	474.5353088378907	149.9912719726563	-1712.44580078125	475.7386474609376	114.0986557006836	-1708.757080078125	422.7854919433595	112.1958541870117	-1696.162353515625	397.8282165527345	124.6810836791992	-1788.41748046875	490.312469482422	58.06965637207033	-1704.069580078125	432.3131408691407	52.06365966796876	-1689.020751953125	378.6111145019532	56.85151672363283	-1756.136352539063	445.7063598632814	26.95824241638184	-1655.824462890625	694.6160278320314	773.790710449219	-1214.336059570313	691.8509521484376	787.156188964844	-1154.760864257813	682.8446655273439	706.5379638671876	-1162.271850585938	663.1091918945314	721.4221191406251	-1106.4560546875	635.1563110351564	270.1354675292969	-1102.02685546875	632.4744873046876	262.7077026367188	-1048.637817382813	627.3089599609376	220.2995605468751	-1076.07666015625	609.1707153320314	216.0767669677735	-1021.88232421875	558.5741577148439	83.57100677490236	-1115.92822265625	588.5513916015626	46.19296264648438	-1113.633544921875	530.3672485351564	44.69805145263673	-1108.73583984375	530.0314941406251	68.27373504638673	-887.3609619140627	635.0147094726564	38.29130172729493	-924.6669921875002	
162	0.6708333333333333	467.8558044433595	1086.449829101563	-1434.770629882813	576.3511962890626	1083.326416015625	-1430.056396484375	389.6626586914064	1040.446533203125	-1232.55859375	631.2094726562501	1043.006103515625	-1214.156372070313	320.0390930175782	775.2456054687502	-1353.88818359375	324.2908020019532	755.5720214843751	-1296.39501953125	323.9107360839844	691.5390625000001	-1341.830444335938	338.1632080078126	671.7197265625001	-1288.550048828125	381.6804199218751	369.0239562988282	-1630.595336914063	367.8048095703126	316.9678649902344	-1599.951904296875	384.9731750488282	317.3860473632813	-1658.78955078125	383.2391662597657	266.7377319335938	-1626.316650390625	451.1119689941407	257.2868041992188	-1783.852783203125	491.1087646484376	234.6997222900391	-1801.493896484375	429.4436645507814	230.2118072509766	-1817.881958007813	496.7514648437501	189.0263214111328	-1746.540893554688	400.794158935547	184.4065399169922	-1782.373657226563	473.3319091796876	153.903549194336	-1704.84521484375	474.6544494628907	117.8454513549805	-1702.31298828125	421.6931152343751	115.3735504150391	-1689.855224609375	396.8859863281251	131.0488433837891	-1781.836669921875	489.316864013672	61.41575622558595	-1699.815307617188	431.5009765625001	53.66450500488283	-1685.337890625	378.3366394042969	61.86187744140626	-1751.699462890625	445.1896057128907	26.24682807922364	-1653.49560546875	695.6274414062501	775.6690063476565	-1205.938598632813	692.3745117187501	789.2133789062502	-1146.396484375	683.8168945312501	708.5197143554689	-1153.822143554688	663.7648925781251	723.4137573242189	-1098.061889648438	635.2814331054689	270.7574462890626	-1098.698486328125	632.1001586914064	262.7001342773438	-1045.464233398438	627.0473022460939	220.6828613281251	-1073.443603515625	608.5598144531251	215.8196716308594	-1019.415954589844	558.4357299804689	83.73915100097658	-1115.734008789063	588.5072631835939	46.41243743896485	-1113.486938476563	530.2695312500001	44.7876319885254	-1108.618774414063	529.9045410156251	67.45037841796876	-887.0327148437502	634.9913940429689	38.18036270141602	-924.5115356445315	
163	0.675	468.0239257812501	1086.74560546875	-1428.54443359375	576.8086547851564	1084.380004882813	-1422.817260742188	390.6890258789064	1040.710571289063	-1225.513305664063	631.8117675781251	1044.120239257813	-1206.713012695313	319.6788024902344	774.4686279296877	-1343.918701171875	323.5660095214844	755.5425415039064	-1286.193969726563	323.0127563476563	690.7121582031251	-1330.695922851563	336.8946838378907	671.6433105468751	-1277.007568359375	380.2387695312501	371.7344970703126	-1618.333251953125	366.5177612304688	319.5079650878907	-1588.368530273438	383.3855895996094	320.7060546875001	-1647.456420898438	381.9562988281251	269.5517578125001	-1615.6796875	449.4351501464845	264.0805969238282	-1771.77587890625	489.5458374023439	242.4241638183594	-1790.279663085938	427.9772338867189	238.2814636230469	-1806.928100585938	495.025360107422	193.9373168945313	-1738.42822265625	399.6288452148439	191.0452423095703	-1773.388671875	472.1549072265626	157.9132995605469	-1696.82666015625	473.4501342773439	121.758544921875	-1695.43994140625	420.5205993652345	118.790283203125	-1683.097534179688	395.8165588378907	137.8244018554688	-1774.47509765625	488.1881713867189	64.98995208740236	-1695.008544921875	430.5506286621095	55.5072479248047	-1681.495483398438	377.9218750000001	66.90576934814455	-1746.9384765625	444.527069091797	25.39629745483399	-1651.006225585938	696.5108642578126	777.4375000000002	-1197.829711914063	692.8473510742189	791.1602783203127	-1138.217895507813	684.6514282226564	710.3510742187501	-1145.704345703125	664.3215942382814	725.1312866210939	-1090.023681640625	635.3065795898439	271.6055297851563	-1095.705688476563	631.8670043945314	262.8023986816407	-1042.531982421875	626.9346313476564	221.1678466796876	-1071.017944335938	608.2533569335939	215.5954895019532	-1017.1767578125	558.3925170898439	83.85437011718751	-1115.4296875	588.4755859375001	46.56559371948243	-1113.353515625	530.2908325195314	44.90129852294923	-1108.449584960938	530.3711547851564	66.87864685058595	-886.635681152344	635.4854125976564	38.08176422119141	-924.0181274414065	
164	0.6791666666666667	468.2049255371095	1086.914184570313	-1421.65625	577.1983032226564	1085.421142578125	-1415.629638671875	391.6845703125001	1041.295654296875	-1218.246459960938	632.4308471679689	1045.2666015625	-1199.363891601563	319.2988281250001	773.589782714844	-1333.986328125	322.8108520507813	755.5302124023439	-1276.0556640625	322.1660156250001	690.1646118164064	-1319.439453125	335.6698913574219	671.7401733398439	-1265.490356445313	378.8463745117188	374.6449279785157	-1605.921020507813	365.2411804199219	321.7925109863282	-1576.772583007813	381.7342224121094	323.9234619140626	-1635.651733398438	380.7786560058594	272.4536132812501	-1604.698120117188	447.8253479003907	270.7421875000001	-1759.306274414063	488.2553100585939	250.0808258056641	-1778.384033203125	426.710662841797	246.3272094726563	-1795.50732421875	493.7839355468751	199.4328155517579	-1728.39453125	398.3526611328126	197.9299774169922	-1763.556884765625	470.8672485351564	161.9540405273438	-1688.354248046875	472.2239074707032	125.7002029418946	-1688.037841796875	419.2959899902345	122.2725219726563	-1676.011108398438	394.9293823242189	144.5411224365235	-1766.823608398438	486.8163146972657	68.59313201904298	-1689.515014648438	429.3646545410157	57.76363754272462	-1677.722778320313	377.6352539062501	72.4498748779297	-1741.786254882813	443.6221923828126	24.56400108337403	-1648.248901367188	697.4263305664064	779.1192016601565	-1189.994750976563	693.1296997070314	792.7774047851565	-1130.373291015625	685.3885498046876	711.8984985351564	-1138.021362304688	664.6107177734376	726.6033325195314	-1082.484375	635.3761596679689	272.3695373535157	-1092.916748046875	631.9733276367189	262.9455871582032	-1039.855712890625	627.0287475585939	221.673324584961	-1068.88134765625	608.3120117187501	215.561996459961	-1015.125915527344	558.5610961914064	84.0356903076172	-1115.266479492188	588.5604858398439	46.69321823120118	-1113.207397460938	530.3916625976564	45.07342147827149	-1108.342895507813	530.9664306640626	66.37801361083986	-886.2779541015627	635.6877441406251	37.61993408203126	-924.3167114257815	
